<?xml version="1.0" standalone="no"?>
<!DOCTYPE svg PUBLIC "-//W3C//DTD SVG 20010904//EN"
 "http://www.w3.org/TR/2001/REC-SVG-20010904/DTD/svg10.dtd">
<svg version="1.0" xmlns="http://www.w3.org/2000/svg"
 width="2000.000000pt" height="458.000000pt" viewBox="0 0 2000.000000 458.000000"
 preserveAspectRatio="xMidYMid meet">
<metadata>
Created by potrace 1.11, written by Peter Selinger 2001-2013
</metadata>
<g transform="translate(0.000000,458.000000) scale(0.100000,-0.100000)"
fill="#000000" stroke="none">
<path d="M10453 2833 c3 -1605 5 -1755 21 -1833 36 -181 84 -303 171 -436 157
-242 415 -411 750 -491 61 -14 157 -17 738 -20 l667 -4 0 440 0 440 -502 3
-503 3 -50 25 c-117 58 -170 150 -186 325 -5 55 -8 368 -7 695 l3 595 686 5
686 5 -206 432 -206 432 -480 3 -480 3 -3 563 -2 562 -551 0 -550 0 4 -1747z"/>
<path d="M13 4533 c2 -10 460 -976 1017 -2148 557 -1172 1036 -2181 1065
-2242 l54 -113 768 0 769 0 121 207 c67 115 352 602 633 1083 282 481 562 961
623 1065 129 220 187 350 229 513 26 101 31 140 35 287 4 131 1 192 -11 265
-91 521 -498 942 -1026 1060 -157 35 -286 40 -1038 40 -626 0 -733 -2 -730
-14 2 -8 95 -206 207 -440 l204 -425 521 -3 521 -3 58 -27 c75 -35 157 -114
192 -185 40 -79 47 -207 17 -276 -37 -84 -1285 -2208 -1293 -2200 -6 6 -878
1839 -1617 3398 l-81 170 -622 3 c-589 2 -621 1 -616 -15z"/>
<path d="M5667 4543 c-4 -3 -7 -204 -7 -445 l0 -438 550 0 550 0 0 445 0 445
-543 0 c-299 0 -547 -3 -550 -7z"/>
<path d="M14910 3679 c-733 -43 -1409 -448 -1728 -1037 -416 -765 -200 -1664
530 -2215 215 -162 494 -295 760 -363 212 -53 311 -64 590 -64 262 0 323 5
503 41 213 43 505 160 700 279 454 278 766 710 866 1200 26 127 36 369 19 508
-67 582 -447 1102 -1023 1402 -264 137 -585 228 -862 245 -185 11 -223 12
-355 4z m316 -900 c379 -67 680 -366 761 -759 24 -115 14 -338 -21 -453 -66
-221 -203 -407 -391 -532 -89 -59 -166 -94 -282 -127 -110 -32 -340 -32 -458
0 -334 91 -595 362 -682 708 -24 95 -24 342 0 436 91 366 372 646 722 721 83
18 267 21 351 6z"/>
<path d="M8805 3449 c-698 -40 -1242 -374 -1520 -934 -169 -342 -220 -699
-155 -1083 117 -682 631 -1195 1340 -1336 208 -41 308 -46 982 -46 l638 0 0
440 0 440 -577 0 c-643 0 -678 3 -832 69 -371 158 -564 563 -461 967 39 150
101 259 213 372 103 105 221 170 391 214 77 21 110 22 738 27 l656 6 -207 435
-208 435 -429 1 c-236 1 -492 -2 -569 -7z"/>
<path d="M18530 3449 c-512 -41 -904 -353 -1032 -818 -52 -190 -51 -153 -55
-1408 l-4 -1173 550 0 550 0 3 1113 c3 1026 5 1117 21 1172 32 107 94 180 187
218 54 22 63 22 646 27 l591 5 -207 435 -208 435 -473 1 c-261 1 -517 -2 -569
-7z"/>
<path d="M5667 3423 c-4 -3 -7 -764 -7 -1690 l0 -1683 550 0 550 0 0 1690 0
1690 -543 0 c-299 0 -547 -3 -550 -7z"/>
</g>
</svg>
